<svg xmlns="http://www.w3.org/2000/svg" viewBox="0 0 344.6 72.3"><path fill="#C94A18" d="M57.5 42.7H33.3v5.9h24.3c4.7.1 8.4 4 8.4 8.7 0 4.8-3.9 8.7-8.7 8.7-4.7 0-8.5-3.7-8.7-8.4v-5.3h-5.9v5.3c0 8.2 6.6 14.8 14.8 14.8 8.2 0 14.8-6.6 14.8-14.8 0-8.3-6.6-14.9-14.8-14.9m-33.8 0v14.9c-.1 4.7-4 8.4-8.7 8.4-4.8 0-8.7-3.9-8.7-8.7 0-4.7 3.7-8.5 8.4-8.7H20v-5.9h-5.3C6.6 42.7 0 49.3 0 57.5c0 8.2 6.6 14.8 14.8 14.8 8.2 0 14.8-6.6 14.8-14.8V33.3h-5.9v9.4zm-8.9-13.1H39v-5.9H14.7c-4.7-.1-8.4-4-8.4-8.7 0-4.8 3.9-8.7 8.7-8.7 4.7 0 8.5 3.7 8.7 8.4V20h5.9v-5.3C29.6 6.6 23 0 14.8 0 6.6 0 0 6.6 0 14.8 0 23 6.6 29.6 14.8 29.6m33.8 0V14.7c.1-4.7 4-8.4 8.7-8.4 4.8 0 8.7 3.9 8.7 8.7 0 4.7-3.7 8.5-8.4 8.7h-5.3v5.9h5.3c8.2 0 14.8-6.6 14.8-14.8C72.3 6.6 65.7 0 57.5 0S42.7 6.6 42.7 14.8V39h5.9v-9.4z"/><path d="M330.3 61.7h-4.6v3.6h5.1v1.8h-7.3V55h7.1v1.8h-4.8v3.1h4.6v1.8zM338.3 56.8h-3.5V55h9.2v1.9h-3.5v10.3h-2.2V56.8zM80.9 55.1c.8-.1 2.1-.3 3.3-.3 1.7 0 2.9.3 3.7 1 .7.6 1 1.4 1 2.4 0 1.6-1.1 2.6-2.2 3v.1c.9.3 1.4 1.2 1.7 2.3.4 1.5.7 2.9 1 3.4h-2.3c-.2-.4-.5-1.4-.8-2.9-.3-1.6-.9-2.1-2.2-2.1H83v5h-2.2V55.1zm2.2 5.4h1.3c1.5 0 2.4-.8 2.4-2 0-1.3-.9-1.9-2.4-1.9-.7 0-1.2.1-1.4.1v3.8zM96.5 55v12.2h-2.2V55h2.2zM102 55h2.2v5.6h.1c.3-.5.6-.9.9-1.3l3.2-4.3h2.7l-4.2 5.2 4.4 7h-2.6l-3.4-5.6-1.1 1.3v4.3H102V55zM115.5 64.7c.7.4 1.8.8 2.9.8 1.4 0 2.2-.7 2.2-1.7 0-.9-.6-1.5-2.2-2-2-.7-3.3-1.8-3.3-3.5 0-2 1.7-3.5 4.3-3.5 1.3 0 2.3.3 2.9.6l-.5 1.8c-.4-.2-1.3-.6-2.4-.6-1.4 0-2 .8-2 1.5 0 .9.7 1.4 2.3 2 2.1.8 3.1 1.9 3.1 3.6 0 1.9-1.5 3.7-4.6 3.7-1.3 0-2.6-.4-3.3-.8l.6-1.9zM130.4 63.7l-1 3.4h-2.3L131 55h2.8l3.9 12.1h-2.4l-1.1-3.4h-3.8zm3.5-1.7l-1-3c-.2-.7-.4-1.6-.6-2.3-.2.7-.4 1.5-.6 2.3l-.9 3h3.1zM142.5 67.1V55h2.5l3.1 5.2c.8 1.3 1.5 2.8 2.1 4.1-.1-1.6-.2-3.2-.2-5V55h2.1v12.1h-2.3l-3.2-5.3c-.8-1.3-1.6-2.8-2.2-4.2h-.1c.1 1.6.1 3.2.1 5.2v4.3h-1.9zM160 56.8h-3.5V55h9.2v1.9h-3.5v10.3H160V56.8zM172.4 55v12.1h-2.2V55h2.2zM178 55h2.2v5.6h.1c.3-.5.6-.9.9-1.3l3.2-4.3h2.7l-4.2 5.2 4.4 7h-2.6l-3.4-5.6-1.1 1.3v4.3H178V55zM194.5 67.1l-4-12.1h2.4l1.7 5.5c.5 1.5.9 3 1.2 4.4.3-1.4.8-2.9 1.2-4.4l1.8-5.5h2.4L197 67.1h-2.5zM207 63.7l-1 3.4h-2.3l3.9-12.1h2.8l3.9 12.1h-2.4l-1.1-3.4H207zm3.5-1.7l-1-3c-.2-.7-.4-1.6-.6-2.3-.2.7-.4 1.5-.6 2.3l-.9 3h3.1zM219.1 55.1c.8-.1 2.1-.3 3.3-.3 1.7 0 2.9.3 3.7 1 .7.6 1 1.4 1 2.4 0 1.6-1.1 2.6-2.2 3v.1c.9.3 1.4 1.2 1.7 2.3.4 1.5.7 2.9 1 3.4h-2.3c-.2-.4-.5-1.4-.8-2.9-.3-1.6-.9-2.1-2.2-2.1h-1.1v5H219V55.1zm2.2 5.4h1.3c1.5 0 2.4-.8 2.4-2 0-1.3-.9-1.9-2.4-1.9-.7 0-1.2.1-1.4.1v3.8zM234.6 55v12.1h-2.2V55h2.2zM247 61.7h-4.6v3.6h5.1v1.8h-7.3V55h7.1v1.8h-4.8v3.1h4.6v1.8zM255 63.7l-1 3.4h-2.3l3.9-12.1h2.8l3.9 12.1h-2.4l-1.1-3.4H255zm.3-9.5c-.6 0-1.1-.5-1.1-1.1 0-.6.5-1.1 1.1-1.1.6 0 1 .5 1 1.1 0 .6-.4 1.1-1 1.1zm3.2 7.8l-1-3c-.2-.7-.4-1.6-.6-2.3-.2.7-.4 1.5-.6 2.3l-.9 3h3.1zm.3-7.8c-.6 0-1-.5-1-1.1 0-.6.5-1.1 1.1-1.1.6 0 1 .5 1 1.1 0 .6-.4 1.1-1.1 1.1zM277.2 62.2c-.1-1.6-.2-3.5-.1-5.1h-.1c-.4 1.5-.9 3.1-1.4 4.7l-1.8 5.3h-1.7l-1.6-5.2c-.5-1.5-.9-3.2-1.2-4.7-.1 1.6-.1 3.5-.2 5.2l-.3 4.9h-2.1l.8-12.1h2.9l1.6 4.9c.4 1.4.8 2.9 1.1 4.2h.1c.3-1.3.7-2.8 1.2-4.2l1.7-4.9h2.9l.7 12.1h-2.2l-.3-5.1zM284.9 55.1c.7-.1 2-.3 3.2-.3 1.6 0 2.6.2 3.5.8.8.5 1.3 1.2 1.3 2.3 0 1.1-.7 2.1-2 2.6 1.3.3 2.4 1.3 2.4 3 0 1.1-.5 1.9-1.2 2.5-.9.8-2.3 1.1-4.5 1.1-1.2 0-2.2-.1-2.7-.2V55.1zm2.2 4.8h1.1c1.5 0 2.4-.7 2.4-1.7 0-1.1-.9-1.7-2.3-1.7-.6 0-1 0-1.3.1v3.3zm0 5.6c.3.1.7.1 1.2.1 1.4 0 2.7-.5 2.7-2 0-1.4-1.2-2-2.8-2h-1.1v3.9zM305.1 61.7h-4.6v3.6h5.1v1.8h-7.3V55h7.1v1.8h-4.8v3.1h4.6v1.8zM313.2 56.8h-3.5V55h9.2v1.9h-3.5v10.3h-2.2V56.8z"/><g><path d="M80.9 46.4c.5.3 1.4.6 2.2.6 1.1 0 1.7-.5 1.7-1.3 0-.7-.5-1.1-1.6-1.5-1.5-.5-2.5-1.4-2.5-2.7 0-1.5 1.3-2.6 3.3-2.6 1 0 1.7.2 2.2.5l-.4 1.4c-.3-.2-1-.4-1.8-.4-1.1 0-1.5.6-1.5 1.1 0 .7.5 1 1.8 1.5 1.6.6 2.4 1.4 2.4 2.7 0 1.5-1.1 2.8-3.5 2.8-1 0-2-.3-2.5-.6l.2-1.5zM90.9 48.2L88.6 39h1.8l.9 4.2c.2 1.1.5 2.3.6 3.2.2-1 .4-2.1.7-3.2l1-4.2h1.8l.9 4.2c.2 1.1.4 2.1.6 3.1.2-1 .4-2.1.6-3.2l1-4.2h1.7l-2.5 9.2h-1.8l-1-4.3c-.2-1.1-.4-1.9-.5-2.9-.2 1-.3 1.9-.6 2.9l-1.1 4.3h-1.8zM107.7 44.2h-3.5v2.7h3.9v1.4h-5.6V39h5.4v1.4h-3.7v2.4h3.5v1.4zM110.9 39.2c.7-.1 1.7-.2 2.7-.2 1.7 0 2.9.4 3.8 1.1.9.7 1.4 1.8 1.4 3.4 0 1.6-.6 2.9-1.4 3.7-.9.8-2.4 1.3-4.2 1.3-1 0-1.7-.1-2.3-.1v-9.2zm1.7 7.8h.9c2.2 0 3.5-1.2 3.5-3.5 0-2-1.2-3.2-3.3-3.2-.5 0-.9 0-1.1.1V47zM123.2 39v9.2h-1.7V39h1.7zM126.4 46.4c.5.3 1.4.6 2.2.6 1.1 0 1.7-.5 1.7-1.3 0-.7-.5-1.1-1.6-1.5-1.5-.5-2.5-1.4-2.5-2.7 0-1.5 1.3-2.6 3.3-2.6 1 0 1.7.2 2.2.5l-.4 1.4c-.3-.2-1-.4-1.8-.4-1.1 0-1.5.6-1.5 1.1 0 .7.5 1 1.8 1.5 1.6.6 2.4 1.4 2.4 2.7 0 1.5-1.1 2.8-3.5 2.8-1 0-2-.3-2.5-.6l.2-1.5zM136.5 39v3.7h3.9V39h1.7v9.2h-1.7v-4.1h-3.9v4.1h-1.7V39h1.7zM149.4 48.2V39h1.9l2.4 3.9c.6 1 1.1 2.1 1.6 3.1-.1-1.2-.1-2.4-.1-3.8V39h1.6v9.2H155l-2.4-4.1c-.6-1-1.2-2.1-1.7-3.2.1 1.2.1 2.4.1 3.9v3.3h-1.6zM161.8 45.6l-.8 2.6h-1.7l3-9.2h2.1l3 9.2h-1.8l-.8-2.6h-3zm2.7-1.2l-.7-2.3c-.2-.6-.3-1.2-.5-1.7-.1.5-.3 1.2-.4 1.7l-.7 2.3h2.3zM170.6 40.4H168V39h7v1.4h-2.6v7.8h-1.7v-7.8zM179 39v9.2h-1.7V39h1.7zM190.4 43.5c0 3.1-1.9 4.8-4.4 4.8-2.6 0-4.2-2-4.2-4.7 0-2.8 1.8-4.8 4.4-4.8 2.6.1 4.2 2.1 4.2 4.7zm-6.9.2c0 1.9.9 3.4 2.6 3.4 1.6 0 2.5-1.5 2.5-3.4 0-1.7-.9-3.4-2.5-3.4-1.7-.1-2.6 1.5-2.6 3.4zM193.2 48.2V39h1.9l2.4 3.9c.6 1 1.1 2.1 1.6 3.1-.1-1.2-.2-2.4-.2-3.8V39h1.6v9.2h-1.7l-2.4-4.1c-.6-1-1.2-2.1-1.7-3.2.1 1.2.1 2.4.1 3.9v3.3h-1.6zM205.6 45.6l-.8 2.6H203l3-9.2h2.1l3 9.2h-1.8l-.8-2.6h-2.9zm2.6-1.2l-.7-2.3c-.2-.6-.3-1.2-.5-1.7-.1.5-.3 1.2-.4 1.7l-.7 2.3h2.3zM213.7 39h1.7v7.8h3.8v1.4h-5.5V39zM226.6 39v3.7h3.9V39h1.7v9.2h-1.7v-4.1h-3.9v4.1h-1.7V39h1.7zM240.5 44.2H237v2.7h3.9v1.4h-5.6V39h5.4v1.4H237v2.4h3.5v1.4zM243.7 39.2c.6-.1 1.6-.2 2.5-.2 1.3 0 2.2.2 2.8.7.5.4.8 1.1.8 1.8 0 1.2-.8 2-1.7 2.3.7.2 1.1.9 1.3 1.8.3 1.1.5 2.2.7 2.6h-1.7c-.1-.3-.4-1-.6-2.2-.3-1.2-.7-1.6-1.7-1.6h-.8v3.8h-1.7v-9zm1.7 4h1c1.1 0 1.8-.6 1.8-1.5 0-1-.7-1.5-1.8-1.5-.5 0-.9 0-1 .1v2.9zM254.5 39v9.2h-1.7V39h1.7zM259.5 40.4h-2.6V39h7v1.4h-2.6v7.8h-1.7v-7.8zM267 45.6l-.8 2.6h-1.7l2.9-9.2h2.1l3 9.2h-1.8l-.8-2.6H267zm2.7-1.2l-.7-2.3c-.2-.6-.3-1.2-.5-1.7-.1.5-.3 1.2-.4 1.7l-.7 2.3h2.3zM282.3 47.8c-.6.2-1.7.5-3 .5-1.6 0-2.7-.4-3.6-1.2-.8-.8-1.3-2-1.3-3.4 0-2.9 2.1-4.8 5.1-4.8 1.1 0 2 .2 2.4.4l-.4 1.4c-.5-.2-1.1-.4-2.1-.4-2 0-3.3 1.2-3.3 3.3 0 2.1 1.3 3.3 3.2 3.3.6 0 1.1-.1 1.3-.2v-2.3H279v-1.3h3.2v4.7zM290.4 44.2H287v2.7h3.9v1.4h-5.6V39h5.4v1.4H287v2.4h3.5v1.4zM297.8 39.2c.5-.1 1.5-.2 2.4-.2 1.2 0 2 .1 2.6.6.6.3 1 .9 1 1.7 0 .8-.5 1.6-1.5 2 1 .2 1.9 1 1.9 2.3 0 .8-.4 1.5-.9 1.9-.7.6-1.7.9-3.4.9-.9 0-1.6-.1-2.1-.1v-9.1zm1.6 3.6h.9c1.2 0 1.8-.5 1.8-1.3 0-.9-.7-1.3-1.7-1.3-.5 0-.8 0-1 .1v2.5zm0 4.2h.9c1.1 0 2-.4 2-1.5s-.9-1.5-2.1-1.5h-.8v3zM315.1 43.5c0 3.1-1.9 4.8-4.4 4.8-2.6 0-4.2-2-4.2-4.7 0-2.8 1.8-4.8 4.4-4.8 2.6.1 4.2 2.1 4.2 4.7zm-6.9.2c0 1.9.9 3.4 2.6 3.4 1.6 0 2.5-1.5 2.5-3.4 0-1.7-.9-3.4-2.5-3.4-1.7-.1-2.6 1.5-2.6 3.4zM319.5 45.6l-.8 2.6H317l2.9-9.2h2.1l3 9.2h-1.8l-.8-2.6h-2.9zm2.6-1.2l-.7-2.3c-.2-.6-.3-1.2-.5-1.7-.1.5-.3 1.2-.4 1.7l-.7 2.3h2.3zM327.7 39.2c.6-.1 1.6-.2 2.5-.2 1.3 0 2.2.2 2.8.7.5.4.8 1.1.8 1.8 0 1.2-.8 2-1.7 2.3.7.2 1.1.9 1.3 1.8.3 1.1.5 2.2.7 2.6h-1.7c-.1-.3-.4-1-.6-2.2-.3-1.2-.7-1.6-1.7-1.6h-.8v3.8h-1.7v-9zm1.6 4h1c1.1 0 1.8-.6 1.8-1.5 0-1-.7-1.5-1.8-1.5-.5 0-.9 0-1 .1v2.9zM336.7 39.2c.7-.1 1.7-.2 2.7-.2 1.7 0 2.9.4 3.8 1.1.9.7 1.4 1.8 1.4 3.4 0 1.6-.6 2.9-1.4 3.7-.9.8-2.4 1.3-4.2 1.3-1 0-1.7-.1-2.3-.1v-9.2zm1.7 7.8h.9c2.2 0 3.5-1.2 3.5-3.5 0-2-1.2-3.2-3.3-3.2-.5 0-.9 0-1.1.1V47z"/></g></svg>